<svg width="25" height="25" viewBox="0 0 25 25" fill="none" xmlns="http://www.w3.org/2000/svg">
<path d="M8.19676 12.2868C8.19676 10.0249 10.0309 8.19086 12.2942 8.19086C14.5574 8.19086 16.3925 10.0249 16.3925 12.2868C16.3925 14.5486 14.5574 16.3827 12.2942 16.3827C10.0309 16.3827 8.19676 14.5486 8.19676 12.2868ZM5.98125 12.2868C5.98125 15.7713 8.80753 18.5959 12.2942 18.5959C15.7808 18.5959 18.6071 15.7713 18.6071 12.2868C18.6071 8.80225 15.7808 5.97767 12.2942 5.97767C8.80753 5.97767 5.98125 8.80225 5.98125 12.2868ZM17.3817 5.72751C17.3816 6.01912 17.468 6.30422 17.63 6.54675C17.792 6.78928 18.0223 6.97835 18.2919 7.09005C18.5614 7.20176 18.858 7.23107 19.1442 7.1743C19.4304 7.11752 19.6933 6.9772 19.8997 6.77108C20.1062 6.56496 20.2468 6.30231 20.3038 6.01632C20.3608 5.73033 20.3317 5.43387 20.2202 5.16441C20.1086 4.89495 19.9196 4.6646 19.6771 4.5025C19.4345 4.34039 19.1493 4.2538 18.8576 4.25368H18.857C18.4659 4.25387 18.0908 4.40918 17.8142 4.68552C17.5376 4.96186 17.382 5.33663 17.3817 5.72751ZM7.32732 22.2879C6.12868 22.2334 5.47719 22.0338 5.04424 21.8653C4.47025 21.6419 4.06071 21.376 3.63012 20.9462C3.19953 20.5165 2.93299 20.1076 2.71052 19.5339C2.54174 19.1014 2.34209 18.4501 2.2876 17.2522C2.228 15.9571 2.2161 15.568 2.2161 12.2869C2.2161 9.00572 2.22898 8.61775 2.2876 7.32155C2.34218 6.12363 2.54332 5.47361 2.71052 5.03984C2.93398 4.4662 3.20012 4.0569 3.63012 3.62657C4.06012 3.19623 4.46927 2.92986 5.04424 2.70752C5.477 2.53884 6.12868 2.33931 7.32732 2.28485C8.62322 2.22528 9.0125 2.21339 12.2942 2.21339C15.5758 2.21339 15.9655 2.22627 17.2625 2.28485C18.4611 2.3394 19.1115 2.54042 19.5455 2.70752C20.1195 2.92986 20.5291 3.19682 20.9597 3.62657C21.3903 4.05631 21.6558 4.4662 21.8793 5.03984C22.048 5.47234 22.2477 6.12363 22.3022 7.32155C22.3618 8.61775 22.3737 9.00572 22.3737 12.2869C22.3737 15.568 22.3618 15.956 22.3022 17.2522C22.2476 18.4501 22.047 19.1012 21.8793 19.5339C21.6558 20.1076 21.3897 20.5169 20.9597 20.9462C20.5297 21.3756 20.1195 21.6419 19.5455 21.8653C19.1128 22.0339 18.4611 22.2335 17.2625 22.2879C15.9666 22.3475 15.5773 22.3594 12.2942 22.3594C9.01102 22.3594 8.62282 22.3475 7.32732 22.2879ZM7.22552 0.0744088C5.91673 0.133975 5.02241 0.341376 4.24138 0.645105C3.43253 0.958762 2.74779 1.37956 2.06355 2.06231C1.37931 2.74506 0.959337 3.43047 0.645492 4.23884C0.341581 5.01989 0.134055 5.91319 0.0744534 7.22119C0.0138678 8.53125 0 8.95009 0 12.2868C0 15.6235 0.0138678 16.0423 0.0744534 17.3524C0.134055 18.6605 0.341581 19.5537 0.645492 20.3347C0.959337 21.1426 1.3794 21.8288 2.06355 22.5113C2.74769 23.1937 3.43253 23.6139 4.24138 23.9285C5.02388 24.2322 5.91673 24.4396 7.22552 24.4992C8.53706 24.5587 8.95546 24.5736 12.2942 24.5736C15.6329 24.5736 16.0519 24.5597 17.3628 24.4992C18.6717 24.4396 19.5654 24.2322 20.3469 23.9285C21.1553 23.6139 21.8405 23.194 22.5248 22.5113C23.209 21.8285 23.6281 21.1426 23.9428 20.3347C24.2467 19.5537 24.4552 18.6604 24.5139 17.3524C24.5735 16.0413 24.5873 15.6235 24.5873 12.2868C24.5873 8.95009 24.5735 8.53125 24.5139 7.22119C24.4543 5.91309 24.2467 5.0194 23.9428 4.23884C23.6281 3.43096 23.2079 2.74615 22.5248 2.06231C21.8416 1.37848 21.1553 0.958762 20.3479 0.645105C19.5654 0.341376 18.6716 0.132992 17.3638 0.0744088C16.0529 0.0148424 15.6338 0 12.2951 0C8.95644 0 8.53706 0.0138595 7.22552 0.0744088Z" fill="url(#paint0_radial_1888_70)"/>
<path d="M8.19676 12.2868C8.19676 10.0249 10.0309 8.19086 12.2942 8.19086C14.5574 8.19086 16.3925 10.0249 16.3925 12.2868C16.3925 14.5486 14.5574 16.3827 12.2942 16.3827C10.0309 16.3827 8.19676 14.5486 8.19676 12.2868ZM5.98125 12.2868C5.98125 15.7713 8.80753 18.5959 12.2942 18.5959C15.7808 18.5959 18.6071 15.7713 18.6071 12.2868C18.6071 8.80225 15.7808 5.97767 12.2942 5.97767C8.80753 5.97767 5.98125 8.80225 5.98125 12.2868ZM17.3817 5.72751C17.3816 6.01912 17.468 6.30422 17.63 6.54675C17.792 6.78928 18.0223 6.97835 18.2919 7.09005C18.5614 7.20176 18.858 7.23107 19.1442 7.1743C19.4304 7.11752 19.6933 6.9772 19.8997 6.77108C20.1062 6.56496 20.2468 6.30231 20.3038 6.01632C20.3608 5.73033 20.3317 5.43387 20.2202 5.16441C20.1086 4.89495 19.9196 4.6646 19.6771 4.5025C19.4345 4.34039 19.1493 4.2538 18.8576 4.25368H18.857C18.4659 4.25387 18.0908 4.40918 17.8142 4.68552C17.5376 4.96186 17.382 5.33663 17.3817 5.72751ZM7.32732 22.2879C6.12868 22.2334 5.47719 22.0338 5.04424 21.8653C4.47025 21.6419 4.06071 21.376 3.63012 20.9462C3.19953 20.5165 2.93299 20.1076 2.71052 19.5339C2.54174 19.1014 2.34209 18.4501 2.2876 17.2522C2.228 15.9571 2.2161 15.568 2.2161 12.2869C2.2161 9.00572 2.22898 8.61775 2.2876 7.32155C2.34218 6.12363 2.54332 5.47361 2.71052 5.03984C2.93398 4.4662 3.20012 4.0569 3.63012 3.62657C4.06012 3.19623 4.46927 2.92986 5.04424 2.70752C5.477 2.53884 6.12868 2.33931 7.32732 2.28485C8.62322 2.22528 9.0125 2.21339 12.2942 2.21339C15.5758 2.21339 15.9655 2.22627 17.2625 2.28485C18.4611 2.3394 19.1115 2.54042 19.5455 2.70752C20.1195 2.92986 20.5291 3.19682 20.9597 3.62657C21.3903 4.05631 21.6558 4.4662 21.8793 5.03984C22.048 5.47234 22.2477 6.12363 22.3022 7.32155C22.3618 8.61775 22.3737 9.00572 22.3737 12.2869C22.3737 15.568 22.3618 15.956 22.3022 17.2522C22.2476 18.4501 22.047 19.1012 21.8793 19.5339C21.6558 20.1076 21.3897 20.5169 20.9597 20.9462C20.5297 21.3756 20.1195 21.6419 19.5455 21.8653C19.1128 22.0339 18.4611 22.2335 17.2625 22.2879C15.9666 22.3475 15.5773 22.3594 12.2942 22.3594C9.01102 22.3594 8.62282 22.3475 7.32732 22.2879ZM7.22552 0.0744088C5.91673 0.133975 5.02241 0.341376 4.24138 0.645105C3.43253 0.958762 2.74779 1.37956 2.06355 2.06231C1.37931 2.74506 0.959337 3.43047 0.645492 4.23884C0.341581 5.01989 0.134055 5.91319 0.0744534 7.22119C0.0138678 8.53125 0 8.95009 0 12.2868C0 15.6235 0.0138678 16.0423 0.0744534 17.3524C0.134055 18.6605 0.341581 19.5537 0.645492 20.3347C0.959337 21.1426 1.3794 21.8288 2.06355 22.5113C2.74769 23.1937 3.43253 23.6139 4.24138 23.9285C5.02388 24.2322 5.91673 24.4396 7.22552 24.4992C8.53706 24.5587 8.95546 24.5736 12.2942 24.5736C15.6329 24.5736 16.0519 24.5597 17.3628 24.4992C18.6717 24.4396 19.5654 24.2322 20.3469 23.9285C21.1553 23.6139 21.8405 23.194 22.5248 22.5113C23.209 21.8285 23.6281 21.1426 23.9428 20.3347C24.2467 19.5537 24.4552 18.6604 24.5139 17.3524C24.5735 16.0413 24.5873 15.6235 24.5873 12.2868C24.5873 8.95009 24.5735 8.53125 24.5139 7.22119C24.4543 5.91309 24.2467 5.0194 23.9428 4.23884C23.6281 3.43096 23.2079 2.74615 22.5248 2.06231C21.8416 1.37848 21.1553 0.958762 20.3479 0.645105C19.5654 0.341376 18.6716 0.132992 17.3638 0.0744088C16.0529 0.0148424 15.6338 0 12.2951 0C8.95644 0 8.53706 0.0138595 7.22552 0.0744088Z" fill="url(#paint1_radial_1888_70)"/>
<defs>
<radialGradient id="paint0_radial_1888_70" cx="0" cy="0" r="1" gradientUnits="userSpaceOnUse" gradientTransform="translate(3.2667 24.6897) scale(32.098 32.0787)">
<stop offset="0.09" stop-color="#FA8F21"/>
<stop offset="0.78" stop-color="#D82D7E"/>
</radialGradient>
<radialGradient id="paint1_radial_1888_70" cx="0" cy="0" r="1" gradientUnits="userSpaceOnUse" gradientTransform="translate(14.9117 25.7905) scale(25.2976 25.2825)">
<stop offset="0.64" stop-color="#8C3AAA" stop-opacity="0"/>
<stop offset="1" stop-color="#8C3AAA"/>
</radialGradient>
</defs>
</svg>
