<svg width="25" height="25" viewBox="0 0 25 25" fill="none" xmlns="http://www.w3.org/2000/svg">
<path d="M12.2942 24.5883C19.084 24.5883 24.5883 19.084 24.5883 12.2942C24.5883 5.50429 19.084 0 12.2942 0C5.50429 0 0 5.50429 0 12.2942C0 19.084 5.50429 24.5883 12.2942 24.5883Z" fill="#34AADF"/>
<path d="M5.2703 12.0249C5.2703 12.0249 11.3602 9.43404 13.4723 8.52174C14.2819 8.15685 17.0277 6.9891 17.0277 6.9891C17.0277 6.9891 18.2949 6.47826 18.1893 7.71893C18.1541 8.22983 17.8725 10.0179 17.5909 11.9519C17.1685 14.6888 16.7108 17.681 16.7108 17.681C16.7108 17.681 16.6404 18.5203 16.042 18.6663C15.4436 18.8122 14.4579 18.1554 14.2819 18.0094C14.1411 17.9 11.6418 16.2579 10.7266 15.4551C10.4801 15.2361 10.1985 14.7983 10.7617 14.2874C12.029 13.0831 13.5427 11.587 14.4579 10.6383C14.8804 10.2003 15.3028 9.17859 13.5427 10.4193C11.0434 12.2074 8.57926 13.886 8.57926 13.886C8.57926 13.886 8.01602 14.2508 6.95998 13.9224C5.90389 13.594 4.67183 13.1561 4.67183 13.1561C4.67183 13.1561 3.82704 12.6088 5.2703 12.0249Z" fill="white"/>
</svg>
