<svg width="20" height="23" viewBox="0 0 20 23" fill="none" xmlns="http://www.w3.org/2000/svg">
<path fill-rule="evenodd" clip-rule="evenodd" d="M14.7625 8.13605C16.2696 9.20749 18.0745 9.77993 19.9237 9.77299V6.10821C19.5602 6.10922 19.1976 6.0703 18.8426 5.99216V8.91177C16.9893 8.91505 15.1817 8.33604 13.6753 7.25651V14.7937C13.6707 16.0305 13.3315 17.243 12.6937 18.3027C12.0559 19.3623 11.1432 20.2296 10.0524 20.8126C8.96163 21.3955 7.73341 21.6724 6.49799 21.6139C5.26258 21.5554 4.06603 21.1637 3.03522 20.4802C3.98869 21.4449 5.207 22.105 6.53587 22.3769C7.86473 22.6487 9.24439 22.5202 10.5001 22.0074C11.7559 21.4946 12.8312 20.6208 13.59 19.4965C14.3487 18.3722 14.7568 17.048 14.7625 15.6916V8.13605ZM16.1001 4.39799C15.3337 3.56725 14.8634 2.50643 14.7625 1.38066V0.904236H13.7364C13.8632 1.61983 14.1392 2.30072 14.5465 2.90265C14.9537 3.50457 15.4831 4.01406 16.1001 4.39799ZM5.41121 17.579C5.05555 17.1139 4.8376 16.5583 4.78215 15.9754C4.7267 15.3926 4.83599 14.8059 5.09757 14.2821C5.35915 13.7583 5.76252 13.3184 6.26178 13.0126C6.76103 12.7067 7.33612 12.5472 7.92158 12.5521C8.24482 12.552 8.56616 12.6014 8.87442 12.6987V8.91177C8.51407 8.86404 8.15063 8.84362 7.78721 8.85069V11.7947C7.03661 11.5575 6.22421 11.6114 5.51158 11.9458C4.79896 12.2803 4.23832 12.8707 3.94119 13.5997C3.64406 14.3287 3.6322 15.1428 3.90798 15.8801C4.18375 16.6174 4.72695 17.2239 5.42954 17.579H5.41121Z" fill="#EE1D52"/>
<path fill-rule="evenodd" clip-rule="evenodd" d="M13.6747 7.23208C15.1812 8.31161 16.9887 8.89062 18.8421 8.88733V5.96773C17.7861 5.74447 16.8269 5.19542 16.0996 4.39799C15.4825 4.01406 14.9532 3.50457 14.5459 2.90265C14.1387 2.30072 13.8627 1.61983 13.7358 0.904236H11.0361V15.6916C11.0336 16.3461 10.8262 16.9834 10.4429 17.5141C10.0597 18.0447 9.51995 18.442 8.8994 18.6502C8.27885 18.8584 7.60869 18.867 6.98298 18.6749C6.35727 18.4828 5.80744 18.0995 5.41067 17.579C4.78187 17.2617 4.2783 16.7418 3.98121 16.1032C3.68412 15.4647 3.61082 14.7446 3.77316 14.0593C3.9355 13.3739 4.32399 12.7633 4.87596 12.3258C5.42794 11.8884 6.11119 11.6496 6.8155 11.6481C7.13865 11.6492 7.45982 11.6986 7.76834 11.7947V8.85068C6.43533 8.88268 5.14068 9.3032 4.04329 10.0606C2.94591 10.818 2.09356 11.8794 1.59086 13.1144C1.08817 14.3494 0.957016 15.7043 1.2135 17.0128C1.46998 18.3213 2.10294 19.5264 3.03467 20.4802C4.0657 21.1686 5.26413 21.5644 6.50232 21.6255C7.74051 21.6865 8.97208 21.4106 10.0658 20.827C11.1596 20.2435 12.0746 19.3742 12.7133 18.3117C13.3521 17.2493 13.6907 16.0334 13.6931 14.7937L13.6747 7.23208Z" fill="black"/>
<path fill-rule="evenodd" clip-rule="evenodd" d="M18.8424 5.96747V5.17954C17.8727 5.18367 16.9217 4.91256 16.0999 4.39773C16.8254 5.19745 17.7854 5.74696 18.8424 5.96747ZM13.7362 0.903977C13.7362 0.763494 13.6934 0.616903 13.6751 0.47642V0H9.94924V14.7935C9.946 15.6218 9.61426 16.415 9.02681 16.999C8.43936 17.5831 7.64421 17.9101 6.81586 17.9085C6.32811 17.911 5.84672 17.7979 5.41103 17.5787C5.8078 18.0993 6.35763 18.4825 6.98334 18.6747C7.60905 18.8668 8.27921 18.8581 8.89976 18.65C9.52031 18.4418 10.0601 18.0445 10.4433 17.5138C10.8265 16.9832 11.0339 16.3459 11.0365 15.6913V0.903977H13.7362ZM7.7687 8.84432V8.00753C6.23553 7.79925 4.67703 8.11639 3.34718 8.90727C2.01733 9.69814 0.994555 10.9161 0.44554 12.3627C-0.103476 13.8092 -0.146358 15.3991 0.32388 16.8732C0.794119 18.3472 1.74975 19.6186 3.03503 20.48C2.11035 19.5239 1.48414 18.3193 1.23289 17.0132C0.981643 15.7071 1.11624 14.3561 1.62025 13.1252C2.12426 11.8943 2.97584 10.8369 4.07098 10.0821C5.16611 9.3273 6.45738 8.90781 7.78702 8.87486L7.7687 8.84432Z" fill="#69C9D0"/>
</svg>
