<svg width="27" height="16" viewBox="0 0 27 16" fill="none" xmlns="http://www.w3.org/2000/svg">
<path fill-rule="evenodd" clip-rule="evenodd" d="M26.1351 1.03108C26.3211 0.436732 26.1351 0 25.2502 0H22.3238C21.5798 0 21.2367 0.377271 21.0507 0.793293C21.0507 0.793293 19.5625 4.2702 17.4544 6.52867C16.7723 7.18243 16.4623 7.39044 16.0902 7.39044C15.9043 7.39044 15.635 7.18243 15.635 6.58813V1.03108C15.635 0.317863 15.4191 0 14.7989 0H10.2004C9.73542 0 9.45578 0.331022 9.45578 0.644743C9.45578 1.32086 10.5098 1.47678 10.6185 3.3787V7.50936C10.6185 8.41499 10.4478 8.57918 10.0758 8.57918C9.08374 8.57918 6.67059 5.08675 5.23937 1.09049C4.95889 0.313759 4.67756 0 3.92967 0H1.00333C0.167228 0 0 0.377271 0 0.793293C0 1.53624 0.992095 5.22115 4.61936 10.0947C7.03752 13.423 10.4445 15.2271 13.5448 15.2271C15.4049 15.2271 15.635 14.8264 15.635 14.1362V11.6207C15.635 10.8193 15.8113 10.6593 16.4003 10.6593C16.8343 10.6593 17.5784 10.8673 19.3146 12.4721C21.2987 14.3739 21.6258 15.2271 22.7419 15.2271H25.6682C26.5043 15.2271 26.9224 14.8264 26.6812 14.0356C26.4173 13.2475 25.47 12.104 24.213 10.7485C23.5309 9.97584 22.5078 9.1438 22.1978 8.72769C21.7637 8.19285 21.8877 7.95506 22.1978 7.47963C22.1978 7.47963 25.7631 2.66548 26.1351 1.03108Z" fill="#2787F5"/>
</svg>
