<svg width="26" height="18" viewBox="0 0 26 18" fill="none" xmlns="http://www.w3.org/2000/svg">
<path d="M25.1155 2.81045C24.8217 1.70591 23.9525 0.834546 22.8467 0.535909C20.8473 1.9507e-07 12.825 0 12.825 0C12.825 0 4.80683 1.9507e-07 2.8033 0.535909C1.70157 0.830455 0.832421 1.70182 0.534545 2.81045C0 4.815 0 9 0 9C0 9 0 13.185 0.534545 15.1895C0.828341 16.2941 1.69749 17.1655 2.8033 17.4641C4.80683 18 12.825 18 12.825 18C12.825 18 20.8473 18 22.8467 17.4641C23.9484 17.1695 24.8176 16.2982 25.1155 15.1895C25.65 13.185 25.65 9 25.65 9C25.65 9 25.65 4.815 25.1155 2.81045Z" fill="#FF3000"/>
<path d="M10.2624 12.8577L16.9259 9L10.2624 5.14227V12.8577Z" fill="white"/>
</svg>
