<svg width="176" height="32" viewBox="0 0 176 32" fill="none" xmlns="http://www.w3.org/2000/svg">
<rect width="32" height="32" rx="8" fill="#1F00BB"/>
<path d="M13 20.5L8.5 16L13 11.5L14.0687 12.5688L10.6188 16.0188L14.05 19.45L13 20.5ZM19 20.5L17.9312 19.4313L21.3813 15.9812L17.95 12.55L19 11.5L23.5 16L19 20.5Z" fill="white"/>
<path d="M46.3636 23H41.4347V8.45455H46.4631C47.9072 8.45455 49.1477 8.74574 50.1847 9.32812C51.2263 9.90578 52.0265 10.7367 52.5852 11.821C53.1439 12.9053 53.4233 14.2027 53.4233 15.7131C53.4233 17.2282 53.1416 18.5303 52.5781 19.6193C52.0194 20.7083 51.2121 21.544 50.1562 22.1264C49.1051 22.7088 47.8409 23 46.3636 23ZM44.0696 20.7202H46.2358C47.2491 20.7202 48.0942 20.5355 48.7713 20.1662C49.4484 19.7921 49.9574 19.2358 50.2983 18.4972C50.6392 17.7538 50.8097 16.8258 50.8097 15.7131C50.8097 14.6004 50.6392 13.6771 50.2983 12.9432C49.9574 12.2045 49.4531 11.6529 48.7855 11.2884C48.1226 10.919 47.2988 10.7344 46.3139 10.7344H44.0696V20.7202ZM60.1428 23.2131C59.049 23.2131 58.1044 22.9858 57.3089 22.5312C56.5182 22.072 55.9098 21.4233 55.4837 20.5852C55.0575 19.7424 54.8445 18.7505 54.8445 17.6094C54.8445 16.4872 55.0575 15.5024 55.4837 14.6548C55.9145 13.8026 56.5159 13.1397 57.2876 12.6662C58.0594 12.188 58.9661 11.9489 60.0078 11.9489C60.6802 11.9489 61.3146 12.0578 61.9112 12.2756C62.5125 12.4886 63.0429 12.8201 63.5021 13.2699C63.9661 13.7197 64.3307 14.2926 64.5959 14.9886C64.861 15.6799 64.9936 16.5038 64.9936 17.4602V18.2486H56.0518V16.5156H62.5291C62.5244 16.0232 62.4179 15.5852 62.2095 15.2017C62.0012 14.8134 61.71 14.508 61.3359 14.2855C60.9666 14.063 60.5357 13.9517 60.0433 13.9517C59.5178 13.9517 59.0561 14.0795 58.6584 14.3352C58.2607 14.5862 57.9505 14.9176 57.728 15.3295C57.5102 15.7367 57.3989 16.1842 57.3942 16.6719V18.1847C57.3942 18.8191 57.5102 19.3636 57.7422 19.8182C57.9742 20.268 58.2985 20.6136 58.7152 20.8551C59.1319 21.0919 59.6196 21.2102 60.1783 21.2102C60.5523 21.2102 60.8909 21.1581 61.1939 21.054C61.4969 20.9451 61.7597 20.7865 61.9822 20.5781C62.2048 20.3698 62.3729 20.1117 62.4865 19.804L64.8871 20.0739C64.7356 20.7083 64.4467 21.2623 64.0206 21.7358C63.5992 22.2045 63.0594 22.5691 62.4013 22.8295C61.7431 23.0852 60.9903 23.2131 60.1428 23.2131ZM69.2397 16.608V23H66.6687V12.0909H69.1261V13.9446H69.2539C69.5049 13.3338 69.9049 12.8485 70.4542 12.4886C71.0082 12.1288 71.6924 11.9489 72.5067 11.9489C73.2596 11.9489 73.9154 12.1098 74.4741 12.4318C75.0375 12.7538 75.4731 13.2202 75.7809 13.831C76.0934 14.4418 76.2473 15.1828 76.2425 16.054V23H73.6715V16.4517C73.6715 15.7225 73.4821 15.152 73.1033 14.7401C72.7293 14.3281 72.2108 14.1222 71.5479 14.1222C71.0981 14.1222 70.698 14.2216 70.3477 14.4205C70.002 14.6146 69.7298 14.8963 69.5309 15.2656C69.3368 15.6349 69.2397 16.0824 69.2397 16.608ZM78.3562 23V12.0909H80.9272V23H78.3562ZM79.6488 10.5426C79.2416 10.5426 78.8912 10.4077 78.5977 10.1378C78.3041 9.86316 78.1573 9.53409 78.1573 9.15057C78.1573 8.76231 78.3041 8.43324 78.5977 8.16335C78.8912 7.88873 79.2416 7.75142 79.6488 7.75142C80.0607 7.75142 80.4111 7.88873 80.6999 8.16335C80.9935 8.43324 81.1403 8.76231 81.1403 9.15057C81.1403 9.53409 80.9935 9.86316 80.6999 10.1378C80.4111 10.4077 80.0607 10.5426 79.6488 10.5426ZM91.6932 14.9744L89.3494 15.2301C89.2831 14.9934 89.1671 14.7708 89.0014 14.5625C88.8404 14.3542 88.6226 14.1861 88.348 14.0582C88.0734 13.9304 87.7372 13.8665 87.3395 13.8665C86.8045 13.8665 86.3546 13.9825 85.9901 14.2145C85.6302 14.4465 85.4527 14.7472 85.4574 15.1165C85.4527 15.4337 85.5687 15.6918 85.8054 15.8906C86.0469 16.0895 86.4446 16.2528 86.9986 16.3807L88.8594 16.7784C89.8916 17.0009 90.6586 17.3537 91.1605 17.8366C91.6671 18.3196 91.9228 18.9517 91.9276 19.733C91.9228 20.4195 91.7216 21.0256 91.3239 21.5511C90.9309 22.072 90.384 22.4792 89.6832 22.7727C88.9825 23.0663 88.1776 23.2131 87.2685 23.2131C85.9332 23.2131 84.8584 22.9337 84.044 22.375C83.2296 21.8116 82.7443 21.0279 82.5881 20.0241L85.0952 19.7827C85.2088 20.2751 85.4503 20.6468 85.8196 20.8977C86.1889 21.1487 86.6695 21.2741 87.2614 21.2741C87.8722 21.2741 88.3622 21.1487 88.7315 20.8977C89.1056 20.6468 89.2926 20.3366 89.2926 19.9673C89.2926 19.6548 89.1719 19.3968 88.9304 19.1932C88.6937 18.9896 88.3243 18.8333 87.8224 18.7244L85.9616 18.3338C84.9152 18.116 84.1411 17.7491 83.6392 17.233C83.1373 16.7121 82.8887 16.054 82.8935 15.2585C82.8887 14.5862 83.071 14.0038 83.4403 13.5114C83.8144 13.0142 84.3329 12.6307 84.9957 12.3608C85.6634 12.0862 86.4328 11.9489 87.304 11.9489C88.5824 11.9489 89.5885 12.2211 90.3224 12.7656C91.0611 13.3101 91.518 14.0464 91.6932 14.9744ZM103.051 23H98.1222V8.45455H103.151C104.595 8.45455 105.835 8.74574 106.872 9.32812C107.914 9.90578 108.714 10.7367 109.273 11.821C109.831 12.9053 110.111 14.2027 110.111 15.7131C110.111 17.2282 109.829 18.5303 109.266 19.6193C108.707 20.7083 107.9 21.544 106.844 22.1264C105.793 22.7088 104.528 23 103.051 23ZM100.757 20.7202H102.923C103.937 20.7202 104.782 20.5355 105.459 20.1662C106.136 19.7921 106.645 19.2358 106.986 18.4972C107.327 17.7538 107.497 16.8258 107.497 15.7131C107.497 14.6004 107.327 13.6771 106.986 12.9432C106.645 12.2045 106.141 11.6529 105.473 11.2884C104.81 10.919 103.986 10.7344 103.001 10.7344H100.757V20.7202ZM112.001 23V12.0909H114.494V13.9091H114.607C114.806 13.2794 115.147 12.794 115.63 12.4531C116.118 12.1075 116.674 11.9347 117.299 11.9347C117.441 11.9347 117.6 11.9418 117.775 11.956C117.955 11.9654 118.104 11.982 118.222 12.0057V14.3707C118.113 14.3329 117.941 14.2997 117.704 14.2713C117.472 14.2382 117.247 14.2216 117.029 14.2216C116.56 14.2216 116.139 14.3234 115.765 14.527C115.396 14.7259 115.104 15.0028 114.891 15.358C114.678 15.7131 114.572 16.1226 114.572 16.5866V23H112.001ZM123.74 23.2131C122.674 23.2131 121.751 22.9787 120.97 22.5099C120.189 22.0412 119.583 21.3854 119.152 20.5426C118.725 19.6998 118.512 18.715 118.512 17.5881C118.512 16.4612 118.725 15.474 119.152 14.6264C119.583 13.7789 120.189 13.1207 120.97 12.652C121.751 12.1832 122.674 11.9489 123.74 11.9489C124.805 11.9489 125.728 12.1832 126.51 12.652C127.291 13.1207 127.895 13.7789 128.321 14.6264C128.752 15.474 128.967 16.4612 128.967 17.5881C128.967 18.715 128.752 19.6998 128.321 20.5426C127.895 21.3854 127.291 22.0412 126.51 22.5099C125.728 22.9787 124.805 23.2131 123.74 23.2131ZM123.754 21.1534C124.332 21.1534 124.815 20.9948 125.203 20.6776C125.591 20.3556 125.88 19.9247 126.069 19.3849C126.263 18.8452 126.36 18.2438 126.36 17.581C126.36 16.9134 126.263 16.3097 126.069 15.7699C125.88 15.2254 125.591 14.7921 125.203 14.4702C124.815 14.1482 124.332 13.9872 123.754 13.9872C123.162 13.9872 122.67 14.1482 122.277 14.4702C121.888 14.7921 121.597 15.2254 121.403 15.7699C121.214 16.3097 121.119 16.9134 121.119 17.581C121.119 18.2438 121.214 18.8452 121.403 19.3849C121.597 19.9247 121.888 20.3556 122.277 20.6776C122.67 20.9948 123.162 21.1534 123.754 21.1534ZM130.763 23V8.45455H133.334V13.8949H133.44C133.573 13.6297 133.76 13.348 134.001 13.0497C134.243 12.7467 134.57 12.4886 134.982 12.2756C135.393 12.0578 135.919 11.9489 136.558 11.9489C137.401 11.9489 138.161 12.1643 138.838 12.5952C139.52 13.0213 140.06 13.6534 140.457 14.4915C140.86 15.3248 141.061 16.3475 141.061 17.5597C141.061 18.7576 140.865 19.7756 140.472 20.6136C140.079 21.4517 139.544 22.0909 138.866 22.5312C138.189 22.9716 137.422 23.1918 136.565 23.1918C135.94 23.1918 135.422 23.0876 135.01 22.8793C134.598 22.6709 134.267 22.42 134.016 22.1264C133.769 21.8281 133.578 21.5464 133.44 21.2812H133.291V23H130.763ZM133.284 17.5455C133.284 18.2509 133.384 18.8688 133.582 19.3991C133.786 19.9295 134.077 20.3437 134.456 20.642C134.839 20.9356 135.304 21.0824 135.848 21.0824C136.416 21.0824 136.892 20.9309 137.276 20.6278C137.659 20.3201 137.948 19.901 138.142 19.3707C138.341 18.8357 138.44 18.2273 138.44 17.5455C138.44 16.8684 138.343 16.267 138.149 15.7415C137.955 15.2159 137.666 14.804 137.283 14.5057C136.899 14.2074 136.421 14.0582 135.848 14.0582C135.299 14.0582 134.832 14.2027 134.449 14.4915C134.065 14.7803 133.774 15.1851 133.575 15.706C133.381 16.2268 133.284 16.84 133.284 17.5455ZM143.974 27.0909C143.623 27.0909 143.299 27.0625 143.001 27.0057C142.707 26.9536 142.473 26.892 142.298 26.821L142.894 24.8182C143.268 24.9271 143.602 24.9792 143.896 24.9744C144.189 24.9697 144.447 24.8774 144.67 24.6974C144.897 24.5223 145.089 24.2287 145.245 23.8168L145.465 23.2273L141.509 12.0909H144.237L146.751 20.3295H146.864L149.386 12.0909H152.12L147.752 24.321C147.549 24.8987 147.279 25.3935 146.942 25.8054C146.606 26.2221 146.194 26.5393 145.707 26.7571C145.224 26.9796 144.646 27.0909 143.974 27.0909ZM162.021 14.9744L159.678 15.2301C159.611 14.9934 159.495 14.7708 159.33 14.5625C159.169 14.3542 158.951 14.1861 158.676 14.0582C158.402 13.9304 158.065 13.8665 157.668 13.8665C157.133 13.8665 156.683 13.9825 156.318 14.2145C155.958 14.4465 155.781 14.7472 155.786 15.1165C155.781 15.4337 155.897 15.6918 156.134 15.8906C156.375 16.0895 156.773 16.2528 157.327 16.3807L159.188 16.7784C160.22 17.0009 160.987 17.3537 161.489 17.8366C161.995 18.3196 162.251 18.9517 162.256 19.733C162.251 20.4195 162.05 21.0256 161.652 21.5511C161.259 22.072 160.712 22.4792 160.011 22.7727C159.311 23.0663 158.506 23.2131 157.597 23.2131C156.261 23.2131 155.187 22.9337 154.372 22.375C153.558 21.8116 153.072 21.0279 152.916 20.0241L155.423 19.7827C155.537 20.2751 155.778 20.6468 156.148 20.8977C156.517 21.1487 156.998 21.2741 157.589 21.2741C158.2 21.2741 158.69 21.1487 159.06 20.8977C159.434 20.6468 159.621 20.3366 159.621 19.9673C159.621 19.6548 159.5 19.3968 159.259 19.1932C159.022 18.9896 158.652 18.8333 158.151 18.7244L156.29 18.3338C155.243 18.116 154.469 17.7491 153.967 17.233C153.465 16.7121 153.217 16.054 153.222 15.2585C153.217 14.5862 153.399 14.0038 153.768 13.5114C154.143 13.0142 154.661 12.6307 155.324 12.3608C155.991 12.0862 156.761 11.9489 157.632 11.9489C158.911 11.9489 159.917 12.2211 160.651 12.7656C161.389 13.3101 161.846 14.0464 162.021 14.9744ZM166.447 16.608V23H163.876V8.45455H166.39V13.9446H166.518C166.773 13.3291 167.169 12.8437 167.704 12.4886C168.244 12.1288 168.93 11.9489 169.763 11.9489C170.521 11.9489 171.182 12.1075 171.745 12.4247C172.308 12.742 172.744 13.206 173.052 13.8168C173.364 14.4276 173.521 15.1733 173.521 16.054V23H170.95V16.4517C170.95 15.7178 170.76 15.1473 170.381 14.7401C170.007 14.3281 169.482 14.1222 168.805 14.1222C168.35 14.1222 167.943 14.2216 167.583 14.4205C167.228 14.6146 166.949 14.8963 166.745 15.2656C166.546 15.6349 166.447 16.0824 166.447 16.608Z" fill="#0F172A"/>
</svg>
